# xmcd CD database file
#
# Track frame offsets:
#	150
#	20087
#	40505
#	60660
#
# Disc length: 1073 seconds
#
# Revision: 0
# Processed by: cddbd v1.5PL3 Copyright (c) Steve Scherf et al.
# Submitted via: CDex 1.51
#
DISCID=2a042f04
DTITLE=ピジョンズミルク - 北風
DYEAR=1900
DGENRE=JPop
TTITLE0=北風
TTITLE1=喜びの庭
TTITLE2=同じ風の下
TTITLE3=北風 (Instrumental)
EXTD=
EXTT0=
EXTT1=
EXTT2=
EXTT3=
PLAYORDER=
